 <svg xmlns="http://www.w3.org/2000/svg"
    class="icon icon-cart"
    width="17"
    height="16"
    viewBox="0 0 17 16"
    fill="none"
>
    <path fill-rule="evenodd" clip-rule="evenodd" d="M2.40759 4.90842L2.62268e-07 4.90842L0 3.40842L2.96296 3.40842L3.51834 3.40842L3.68034 3.93963L5.55537 10.0878L12.7639 10.0878L14.6109 3.46479L16.0558 3.86773L14.0558 11.0393L13.9028 11.5878L13.3333 11.5878L5 11.5878L4.44463 11.5878L4.28262 11.0566L2.40759 4.90842ZM14.6667 14.3335C14.6667 15.2539 13.9205 16 13 16C12.0795 16 11.3333 15.2539 11.3333 14.3335C11.3333 13.413 12.0795 12.6669 13 12.6669C13.9205 12.6669 14.6667 13.413 14.6667 14.3335ZM5.66667 16C6.58714 16 7.33333 15.2539 7.33333 14.3335C7.33333 13.413 6.58714 12.6669 5.66667 12.6669C4.74619 12.6669 4 13.413 4 14.3335C4 15.2539 4.74619 16 5.66667 16Z" fill="white"/>
</svg>